<?xml version="1.0" encoding="utf-8"?>
<!-- Generator: Adobe Illustrator 17.1.0, SVG Export Plug-In . SVG Version: 6.00 Build 0)  -->
<!DOCTYPE svg PUBLIC "-//W3C//DTD SVG 1.1//EN" "http://www.w3.org/Graphics/SVG/1.1/DTD/svg11.dtd">
<svg version="1.1" id="Isolation_Mode" xmlns="http://www.w3.org/2000/svg" xmlns:xlink="http://www.w3.org/1999/xlink" x="0px"
	 y="0px" viewBox="258.5 463.8 160 31.5" enable-background="new 258.5 463.8 160 31.5" xml:space="preserve">
<g>
	<g>
		<polygon fill="#00BA84" points="276.3,463.8 267.9,478.5 284.6,478.5 		"/>
		<polygon fill="#00BA84" points="265.8,483.8 258.5,495.3 273.1,495.3 273.1,483.8 		"/>
		<polygon fill="#00BA84" points="279.4,483.8 286.7,483.8 294,495.3 279.4,495.3 		"/>
	</g>
	<g>
		<path fill="#162836" d="M305.4,475.3v15.4h-4.2v-15.4h-5.4v-3.7h15v3.7H305.4z"/>
		<path fill="#162836" d="M331.2,471.6v3.8h-9.4v3.9h8.5v3.6h-8.5v3.9h9.7v3.8h-14v-19L331.2,471.6L331.2,471.6z"/>
		<path fill="#162836" d="M337.7,490.6v-19h4.2v15.3h8.1v3.8L337.7,490.6L337.7,490.6z"/>
		<path fill="#162836" d="M369.8,471.6h4.2v19h-4.2l-9-11.9v11.9h-4.2v-19h4l9.3,12.3v-12.3H369.8z"/>
		<path fill="#162836" d="M390.3,490.6h-4.2v-7.5l-6.6-11.5h4.6l4.1,7.1l4.1-7.1h4.6l-6.6,11.5V490.6L390.3,490.6z"/>
		<path fill="#162836" d="M412.9,471.6h5.1l-5.9,9.2l6.4,9.9h-5.1l-4-6.3l-4,6.3h-5.1l6.4-9.8l-5.9-9.3h5.1l3.6,5.6L412.9,471.6z"/>
	</g>
</g>
</svg>
