<?xml version="1.0" encoding="utf-8"?>
<!-- Generator: Adobe Illustrator 19.2.1, SVG Export Plug-In . SVG Version: 6.00 Build 0)  -->
<svg version="1.1" id="Layer_1" xmlns="http://www.w3.org/2000/svg" xmlns:xlink="http://www.w3.org/1999/xlink" x="0px" y="0px"
	 viewBox="0 0 8598.6 1737.9" style="enable-background:new 0 0 8598.6 1737.9;" xml:space="preserve">
<style type="text/css">
	.st0{fill:#FF6900;}
</style>
<title>Schoenen en Fashion online – zalando.nl</title>
<path d="M2870,1443.5h-739.9c-24.9,0-43.4-19.2-43.4-44.8v-92.5c-0.7-22.8,6.4-32.7,20.6-50.5l589.1-700.8h-577
	c-24.9,0-43.4-19.2-43.4-44.8v-65.5c0-24.9,18.5-44.8,43.4-44.8h747c24.9,0,43.4,19.2,43.4,44.8v94.6c0,17.1-5.7,31.3-18.5,47
	l-589.8,702.9h569.2c24.9,0,43.4,19.2,43.4,44.8v65.5C2913.4,1424.3,2894.9,1443.5,2870,1443.5z M4327.8,1462.7L4327.8,1462.7
	c53.4-0.7,92.5-12.1,107.4-29.2c5-6.4,7.8-13.5,7.1-20.6c-0.7-5.7-0.7-5.7-14.9-75.4l-0.7-1.4c-2.8-18.5-15.7-26.3-26.3-26.3
	c-0.7,0-2.1,0-1.4,0c0,0-13.5-0.7-26.3-0.7l0,0c-37.7-1.4-69-7.1-69.7-63.3V59.7c0-19.9-11.4-39.8-34.1-40.6h-6.4l-103.2,27
	c-17.8,2.1-35.6,14.9-34.9,38.4v1163.9C4125,1386.6,4196.9,1462.7,4327.8,1462.7L4327.8,1462.7L4327.8,1462.7z M6416.6,1443.5h-92.5
	c-24.9,0-43.4-19.2-43.4-44.8V685.8c-1.4-120.9-37-154.4-163.6-155.8c-143,0-288.1,37-336.5,50.5v818.9c0,25.6-17.1,44.8-41.3,44.8
	h-93.9c-24.9,0-43.4-19.2-43.4-44.8V599c-1.4-74,5.7-125.2,108.1-159.4c98.2-34.9,286.7-64,411.2-64c236.9,0,338.7,88.2,338.7,293.1
	v730.7C6459.3,1424.3,6440.8,1443.5,6416.6,1443.5L6416.6,1443.5z M7342.2,559.2c-34.1-9.2-130.2-31.3-238.3-31.3
	c-198.5,2.1-281.7,56.9-283.9,395.6c2.1,371.4,110.3,391.3,286,393.4v7.8v-8.5c109.6,0,203.5-23.5,236.9-32.7V559.2H7342.2
	L7342.2,559.2z M7391.3,1430l-10.7,2.8c-58.3,14.9-138.7,36.3-279.6,36.3h-0.7c-387.7-0.7-464.6-201.3-464.6-547.8
	c0.7-397,123.1-545,453.2-545.7c116.7,0,196.4,15.7,254,29.9l-0.7-320.2c-0.7-14.2,5.7-32.7,38.4-38.4l103.2-27h5.7
	c23.5,0.7,32,22.1,32,40.6v1202.4C7522.9,1338.2,7514.4,1402.9,7391.3,1430L7391.3,1430z M8143.3,1314
	c-254-1.4-266.8-135.2-268.9-391.3c2.1-257.5,14.2-392,268.9-393.4c254,1.4,267.5,135.9,268.9,393.4
	C8410.1,1178.8,8397.3,1313.3,8143.3,1314L8143.3,1314z M8143.3,374.9c-419,0.7-454.6,283.2-455.3,547.8
	c0,263.9,35.6,545,455.3,545.7c419-0.7,454.6-281,455.3-545.7C8597.9,646,8562.4,375.6,8143.3,374.9L8143.3,374.9L8143.3,374.9z
	 M5237,928.4c-42,0.7-245.5,3.6-326.6,21.3l-6.4,1.4c-91.1,20.6-162.9,37.7-164.3,175.7c0,174.3,130.2,190,263.2,190.7v7.8v-7.8
	c83.2,0,162.2-12.1,234.1-36.3L5237,928.4L5237,928.4L5237,928.4z M5417,674.4v553.5c2.1,137.3-32.7,181.4-167.9,213.4
	c-59.1,12.8-150.1,27-248.3,27.7c-144.4-0.7-445.4-0.7-446.1-333.7c-0.7-261.8,152.3-308.1,337.9-336.5
	c121.7-19.9,245.5-22.8,308.1-22.8c17.1,0,27.7,0,34.2,0v-94.6c-0.7-62.6-0.7-100.3-57.6-122.4c-34.9-14.9-87.5-22.1-165.1-22.1
	c-128.1,0-243.3,29.2-319.4,49.1l-29.2,7.1c-2.8,0.7-6.4,1.4-10.7,2.1c-13.5,0-28.5-8.5-33.4-26.3l-0.7-1.4l-17.1-88.9v-5
	c0-20.6,14.9-33.4,29.2-37.7c61.2-23.5,223.4-60.5,398.4-60.5c127.4,0,219.8,17.1,281.7,51.9C5417.7,484.5,5417,589.8,5417,674.4z
	 M3732.3,1282c-71.9,24.2-150.8,36.3-234.1,36.3v7.8v-7.8c-133-1.4-263.2-16.4-263.2-190.7c0.7-138.7,72.6-155.1,164.3-175.7
	l6.4-1.4c81.1-17.8,284.6-21.3,326.6-21.3V1282L3732.3,1282L3732.3,1282z M3806.3,427.5c-61.9-34.9-154.4-51.9-281.7-51.9
	c-175,0-336.5,37-398.4,60.5c-13.5,4.3-28.5,17.1-29.2,37.7v4.3L3114,567l0.7,2.1c5.7,17.8,19.9,26.3,33.4,26.3
	c4.3,0,7.8-0.7,10.7-2.1l29.2-7.1c76.1-19.2,191.4-49.1,319.4-49.1c77.5,0,130.2,7.1,165.8,22.1c56.9,22.1,56.9,59.8,57.6,122.4
	v93.2c-6.4,0-17.8,0-34.9,0c-62.6,0-186.4,2.8-308.1,22.8c-185.7,29.2-339.4,74.7-337.9,337.2c0,333,300.9,333.7,446.1,333.7
	c98.2,0,188.5-14.9,248.3-27.7c135.2-32,169.3-76.1,167.9-213.4V674.4C3911.6,589.8,3911.6,484.5,3806.3,427.5L3806.3,427.5z"/>
<path class="st0" d="M1565.2,681.5c-121.7-153-291-300.9-513.7-434.7l-0.7-0.7c-223.4-130.9-434-207-623.9-238.3
	c-118.1-19.9-175,2.8-200.6,18.5c-25.6,14.9-73.3,54.1-116,168.6C42,379.2,2.1,604,0,867.9v0.7c1.4,263.9,42,489.5,110.3,673.7
	c42.7,115.3,90.4,153.7,116,169.3c25.6,14.9,82.5,38.4,200.6,18.5c190-31.3,399.8-108.1,623.9-239l0.7-0.7
	c222.7-133.8,392-281.7,513.7-434.7c75.4-95.3,84.7-157.2,84.7-187.1S1641.3,776.9,1565.2,681.5"/>
</svg>
